<?xml version="1.0" encoding="UTF-8"?>
<svg width="39px" height="39px" viewBox="0 0 39 39" version="1.1" xmlns="http://www.w3.org/2000/svg" xmlns:xlink="http://www.w3.org/1999/xlink">
    <!-- Generator: Sketch 52.1 (67048) - http://www.bohemiancoding.com/sketch -->
    <title>place_PRE</title>
    <desc>Created with Sketch.</desc>
    <g id="新能源" stroke="none" stroke-width="1" fill="none" fill-rule="evenodd">
        <g id="相关政策" transform="translate(-1411.000000, -156.000000)" fill="#00C4D4">
            <g id="政府" transform="translate(1321.000000, 156.000000)">
                <g id="place-copy" transform="translate(90.000000, 0.000000)">
                    <polygon id="Path" points="36.7007125 33.7046614 34.0505599 33.7046614 34.0505599 31.4849798 4.74791925 31.4849798 4.74791925 33.7046614 2.18284044 33.7046614 2.18284044 35.8392256 0.219688505 35.8392256 0.219688505 38.0614364 38.5813633 38.0614364 38.5813633 35.8392256 36.7007125 35.8392256"></polygon>
                    <path d="M11.0704188,29.6894464 L11.0704188,18.5809219 L12.3516719,18.5809219 L12.3516719,17.1206257 C12.3516719,16.227939 11.6291329,15.5041355 10.7351817,15.5041355 L5.08062729,15.5041354 C4.18794064,15.5041354 3.46540164,16.227939 3.46540164,17.1206256 L3.46540164,18.5809218 L4.83299308,18.5809218 L4.83299308,29.6894028 L11.0704188,29.6894028 L11.0704188,29.6894464 Z" id="Path"></path>
                    <path d="M34.0505599,29.6894464 L34.0505599,18.5809219 L35.4168868,18.5809219 L35.4168868,17.1231547 C35.4168868,16.2304681 34.6943478,15.5066645 33.8029257,15.5066645 L28.150944,15.5066645 C27.2582573,15.5066645 26.5369829,16.2304681 26.5369829,17.1231547 L26.5369829,18.5821864 L27.9033098,18.5821864 L27.9033098,29.6894028 L34.0505599,29.6894464 Z" id="Path"></path>
                    <path d="M22.5167097,29.6894464 L22.5167097,18.5809219 L23.8843011,18.5809219 L23.8843011,17.1206257 C23.8843011,16.227939 23.1617621,15.5041355 22.27034,15.5041355 L16.6157857,15.5041354 C15.723099,15.5041354 15.00056,16.227939 15.00056,17.1206256 L15.00056,18.5809218 L16.2805485,18.5809218 L16.2805485,29.6894028 L22.5167097,29.6894028 L22.5167097,29.6894464 Z" id="Path"></path>
                    <path d="M20.3863418,0.358515821 C19.5200802,-0.119505274 18.4750915,-0.119505274 17.6123898,0.358515821 L1.66578696,9.18430454 C0.637451696,9.75291138 3.55271368e-15,10.8352743 3.55271368e-15,12.0105971 L3.55271368e-15,13 L38,13 L38,12.0105971 C38,10.8352743 37.3625074,9.75168339 36.3353997,9.18311746 L20.3863418,0.358515821 Z M13.3519594,9 C13.1906968,9 13.0512524,8.88465837 13.0112386,8.71751984 C12.9712248,8.55162725 13.0403433,8.3767014 13.1822027,8.2937551 L18.0857015,5.38974519 C18.9660046,4.87008494 20.0330525,4.87008494 20.9133139,5.38974519 L25.8156052,8.2937551 C25.9574646,8.3767014 26.0289981,8.55033681 25.9889843,8.71751984 C25.9489705,8.88470286 25.8095261,9 25.6482635,9 L13.3519594,9 Z" id="Shape" fill-rule="nonzero"></path>
                </g>
            </g>
        </g>
    </g>
</svg>