<?xml version="1.0" encoding="UTF-8"?>
<svg width="1920px" height="670px" viewBox="0 0 1920 670" version="1.1" xmlns="http://www.w3.org/2000/svg" xmlns:xlink="http://www.w3.org/1999/xlink">
    <!-- Generator: Sketch 52.1 (67048) - http://www.bohemiancoding.com/sketch -->
    <title>BG</title>
    <desc>Created with Sketch.</desc>
    <defs>
        <radialGradient cx="36.5594482%" cy="44.7312267%" fx="36.5594482%" fy="44.7312267%" r="98.7079437%" gradientTransform="translate(0.365594,0.447312),scale(0.348958,1.000000),rotate(10.968670),translate(-0.365594,-0.447312)" id="radialGradient-1">
            <stop stop-color="#2B69B8" offset="0%"></stop>
            <stop stop-color="#00E2D3" offset="100%"></stop>
        </radialGradient>
        <rect id="path-2" x="0" y="0" width="1920" height="670" rx="1"></rect>
    </defs>
    <g id="浙江担保协会网站" stroke="none" stroke-width="1" fill="none" fill-rule="evenodd">
        <g id="home-copy">
            <g id="地图gb">
                <mask id="mask-3" fill="white">
                    <use xlink:href="#path-2"></use>
                </mask>
                <use id="Rectangle" fill="url(#radialGradient-1)" fill-rule="nonzero" xlink:href="#path-2"></use>
                <g id="Car" opacity="0.102585565" mask="url(#mask-3)" fill="#0477A6" fill-opacity="0.5" stroke="#00FFE3">
                    <g transform="translate(543.536556, 342.360021) rotate(99.000000) translate(-543.536556, -342.360021) translate(218.036556, -379.139979)">
                        <path d="M48.1420684,165.304414 C64.6754017,121.866058 79.1420684,93.9414006 91.5420684,81.5304417 C154.575402,40.1605787 208.308735,14.3044143 252.742068,3.96194859 L327.142068,0.859208868 L327.142068,329.74962 C240.342068,329.74962 163.875402,350.434551 97.7420684,391.804414 C97.7420684,391.804414 94.6420684,412.489346 88.4420684,453.859209 L54.3420684,438.34551 L54.3420684,376.290716 L48.1420684,342.160579 L48.1420684,165.304414 Z" id="Rectangle-2"></path>
                        <path d="M326.483044,164.755535 C343.016377,121.317179 357.483044,93.3925214 369.883044,80.9815625 C432.916377,39.6116995 486.649711,13.7555351 531.083044,3.41306935 L605.483044,0.310329628 L605.483044,329.200741 C518.683044,329.200741 442.216377,349.885672 376.083044,391.255535 C376.083044,391.255535 372.983044,411.940467 366.783044,453.31033 L332.683044,437.796631 L332.683044,375.741836 L326.483044,341.611699 L326.483044,164.755535 Z" id="Rectangle-2-Copy" transform="translate(465.983044, 226.810330) scale(-1, 1) translate(-465.983044, -226.810330) "></path>
                        <path d="M121.669278,1119.48923 L143.358672,1107.08183 L508.979884,1107.08183 L530.669278,1119.48923 L530.669278,1380.04479 C452.174329,1413.13121 398.467258,1432.77627 369.548066,1438.97998 C369.548066,1438.97998 354.055642,1442.08183 326.169278,1442.08183 C298.282915,1442.08183 282.79049,1438.97998 282.79049,1438.97998 C258.002612,1432.77627 204.295541,1413.13121 121.669278,1380.04479 L121.669278,1119.48923 Z" id="Back"></path>
                        <path d="M53.8186148,438.562318 L84.8186148,454.016863 C78.6186148,478.744136 75.5186148,529.228985 75.5186148,605.471409 C75.5186148,681.713833 75.5186148,739.410803 75.5186148,778.562318 L56.9186148,772.3805 L53.8186148,438.562318 Z" id="Front-door-right"></path>
                        <path d="M568.079049,438.108677 L599.079049,453.563222 C592.879049,478.290495 589.779049,528.775344 589.779049,605.017768 C589.779049,681.260192 589.779049,738.957162 589.779049,778.108677 L571.179049,771.926859 L568.079049,438.108677 Z" id="Front-door-left" transform="translate(583.579049, 608.108677) scale(-1, 1) translate(-583.579049, -608.108677) "></path>
                        <path d="M149.494464,1109.62338 L502.494464,1109.62338 L496.301482,1252.16658 C488.044172,1324.47111 431.275166,1360.62338 325.994464,1360.62338 C220.713762,1360.62338 163.944757,1324.47111 155.687447,1252.16658 L149.494464,1109.62338 Z" id="Trunk"></path>
                        <path d="M126.352142,649.197265 C186.136757,618.197265 253.136757,602.697265 327.352142,602.697265 C401.567526,602.697265 468.567526,617.163931 528.352142,646.097265 L528.352142,695.697265 C464.44445,664.699275 397.44445,649.199275 327.352142,649.197265 C257.259834,649.195255 190.259834,664.695255 126.352142,695.697265 L126.352142,649.197265 Z" id="Forehead"></path>
                        <path d="M102.508511,116.09764 L201.495177,35.5210637 C178.810733,68.5781207 161.281844,105.76731 148.908511,147.088631 C123.940603,230.470117 107.442826,307.947594 99.4151773,379.521064 L87.0418439,364.025568 C84.9796217,302.043586 84.9796217,255.5571 87.0418439,224.566109 C89.1040662,193.575118 94.2596217,157.418962 102.508511,116.09764 Z" id="Cheek-left"></path>
                        <path d="M465.848955,115.248214 L564.835622,34.6716378 C542.151177,67.7286949 524.622288,104.917884 512.248955,146.239205 C487.281048,229.620691 470.78327,307.098169 462.755622,378.671638 L450.382288,363.176142 C448.320066,301.19416 448.320066,254.707674 450.382288,223.716683 C452.44451,192.725692 457.600066,156.569536 465.848955,115.248214 Z" id="Cheek-right" transform="translate(506.835622, 206.671638) scale(-1, 1) translate(-506.835622, -206.671638) "></path>
                        <polygon id="Side-mirror-left" points="0.792211568 539.574939 0.792211568 567.633762 62.273693 539.574939 62.273693 523.986704 83.7922116 520.869057 83.7922116 461.633762"></polygon>
                        <polygon id="Side-mirror-left-Copy" transform="translate(609.320350, 514.934724) scale(-1, 1) translate(-609.320350, -514.934724) " points="567.82035 539.875901 567.82035 567.934724 629.301831 539.875901 629.301831 524.287665 650.82035 521.170018 650.82035 461.934724"></polygon>
                        <path d="M128.631166,695.084889 C192.568666,666.138943 258.568666,651.66597 326.631166,651.66597 C394.693666,651.66597 460.693666,666.138943 524.631166,695.084889 L502.974916,1110.66597 L150.287416,1110.66597 L128.631166,695.084889 Z" id="Top"></path>
                        <path d="M158.347531,682.309268 C214.180864,661.669998 270.014198,651.350363 325.847531,651.350363 C381.680864,651.350363 437.514198,661.669998 493.347531,682.309268 L487.143827,877.350363 L164.551235,877.350363 L158.347531,682.309268 Z" id="Top-door"></path>
                        <path d="M577.983,778.657102 C573.942596,942.174562 567.881989,1041.52694 559.801181,1076.71424 C569.902192,1089.13329 578.993101,1096.37774 587.073909,1098.44758 C597.174919,1092.23805 604.245626,1082.92377 608.28603,1070.50472 C612.326434,1058.08567 608.28603,1031.17774 596.164818,989.780912 L596.164818,772.447578 L577.983,778.657102 Z" id="Back-door-right"></path>
                        <path d="M59.2443488,779.580047 C56.2140458,943.097507 50.6584902,1042.44989 42.5776822,1077.63719 C52.6786923,1090.05624 61.7696013,1097.30068 69.8504094,1099.37052 C79.9514195,1093.161 87.0221266,1083.84671 91.0625306,1071.42767 C95.1029347,1059.00862 91.0625306,1032.10068 78.9413185,990.703856 L77.426167,773.370523 L59.2443488,779.580047 Z" id="Back-door-left" transform="translate(67.577682, 936.370523) scale(-1, 1) translate(-67.577682, -936.370523) "></path>
                        <path d="M41.1812157,1073.81836 C52.1213866,1090.3032 60.3265148,1098.54563 65.7966003,1098.54563 C71.2666857,1098.54563 80.497455,1090.3032 93.488908,1073.81836 L118.104293,1169.63654 L121.181216,1379.81836 C102.719677,1365.39411 91.4376259,1356.12139 87.3350618,1352.00017 C76.9358376,1341.55368 61.5512222,1284.88701 41.1812157,1182.00017 L41.1812157,1073.81836 Z" id="Back-left"></path>
                        <path d="M532.09908,1073.01195 C543.039251,1089.4968 551.244379,1097.73923 556.714465,1097.73923 C562.18455,1097.73923 571.415319,1089.4968 584.406772,1073.01195 L609.022157,1168.83014 L612.09908,1379.01195 C593.637542,1364.58771 582.35549,1355.31498 578.252926,1351.19377 C567.853702,1340.74728 552.469087,1284.08061 532.09908,1181.19377 L532.09908,1073.01195 Z" id="Back-right" transform="translate(572.099080, 1226.011954) scale(-1, 1) translate(-572.099080, -1226.011954) "></path>
                        <path d="M83.3610059,453.326686 L95.9324345,397.549862 C104.313387,434.734412 122.122911,671.269462 149.361006,1107.15501 C145.17053,1107.15501 135.741958,1111.28663 121.075292,1119.54986 C127.361006,848.928975 114.789577,649.578474 83.3610059,521.49836 C83.3610059,521.49836 83.3610059,498.774469 83.3610059,453.326686 Z" id="Left-shoulder"></path>
                        <path d="M502.432219,452.76256 L515.003648,396.985736 C523.3846,434.170285 541.194124,670.705335 568.432219,1106.59089 C564.241743,1106.59089 554.813172,1110.7225 540.146505,1118.98574 C546.432219,848.364849 533.860791,649.014348 502.432219,520.934234 C502.432219,520.934234 502.432219,498.210342 502.432219,452.76256 Z" id="Right-shoulder" transform="translate(535.432219, 757.985736) scale(-1, 1) translate(-535.432219, -757.985736) "></path>
                        <rect id="Back-mirror" x="165.52987" y="881.090573" width="322" height="229"></rect>
                        <path d="M103.340017,391.829827 C163.219646,350.535329 237.552979,329.88808 326.340017,329.88808 C415.127054,329.88808 489.460387,350.535329 549.340017,391.829827 L527.659461,648.88808 C461.585387,617.917206 394.478905,602.431769 326.340017,602.431769 C258.201128,602.431769 191.094646,617.917206 125.020572,648.88808 L103.340017,391.829827 Z" id="Front-mirror"></path>
                        <path d="M70.1332771,165.479665 C65.9896098,111.464161 111.56995,66.7974946 206.874298,31.4796651 C113.641784,106.270363 110.534033,109.386642 107.426283,112.502921 C98.6908259,121.470908 87.2957408,139.129823 73.2410276,165.479665 L70.1332771,165.479665 Z" id="Headlight-left"></path>
                        <path d="M447.770662,165.403222 C443.626994,111.387718 489.207335,66.7210512 584.511682,31.4032218 C491.279168,106.193919 488.171418,109.310199 485.063667,112.426478 C476.32821,121.394465 464.933125,139.05338 450.878412,165.403222 L447.770662,165.403222 Z" id="Headlight-right" transform="translate(516.011682, 98.403222) scale(-1, 1) translate(-516.011682, -98.403222) "></path>
                    </g>
                </g>
            </g>
        </g>
    </g>
</svg>