<?xml version="1.0" encoding="UTF-8"?>
<svg width="48px" height="40px" viewBox="0 0 48 40" version="1.1" xmlns="http://www.w3.org/2000/svg" xmlns:xlink="http://www.w3.org/1999/xlink">
    <!-- Generator: Sketch 52.1 (67048) - http://www.bohemiancoding.com/sketch -->
    <title>China_NOR</title>
    <desc>Created with Sketch.</desc>
    <g id="新能源" stroke="none" stroke-width="1" fill="none" fill-rule="evenodd">
        <g id="相关政策" transform="translate(-475.000000, -156.000000)" fill="#666666" fill-rule="nonzero">
            <g id="国内" transform="translate(475.000000, 156.000000)">
                <g id="Group-7-Copy">
                    <path d="M45.0947697,4.90179546 C45.5344262,5.02170178 45.934114,4.56206089 46.1839188,4.31225607 C46.4337237,4.06245124 47.0532397,3.31303672 47.4928962,3.31303667 C47.742701,3.40296642 47.4928962,4.02248244 47.7626854,4.2323185 C47.7626854,4.2323185 47.9925059,4.49211555 47.9625293,4.51209991 C47.7836223,5.28114979 47.7196438,6.07246289 47.7726776,6.86026543 C47.7863759,7.03042389 47.7325321,7.19913442 47.6227947,7.3298985 C47.4529274,7.57970333 47.0632319,7.38985166 46.8434036,7.38985166 C46.6235754,7.38985166 46.503669,7.61967213 46.4637002,7.75956286 C46.2638563,8.35909447 47.2830601,9.32833724 47.0932084,9.97782984 C47.0932084,10.0477752 46.9633099,10.5773615 46.9433255,10.6772834 C46.9233411,10.7772053 46.9433255,10.8371585 46.7934426,10.8571429 C46.6435597,10.8771273 46.4137393,10.7772053 46.3437939,10.7672131 C46.193911,10.5873536 46.2738486,10.1976581 46.193911,10.1976581 C46.1139734,10.1976581 45.9940671,10.3875097 45.9740828,10.3875097 C45.9740828,10.5673692 45.7942233,11.1169399 45.6043716,11.2068696 C45.4145199,11.2967994 45.2546448,11.3667447 45.0947697,11.3667447 C44.9348946,11.3667447 45.0947697,11.3667447 45.0947697,11.4666667 C45.2452495,11.5551835 45.3424361,11.7121772 45.3545667,11.8863388 C45.3545667,12.1261514 45.0747853,12.3259953 45.00484,12.2760343 C44.6551132,12.2760343 44.4053083,12.0961748 44.0955504,12.0961748 C43.9656519,12.0961748 43.9356753,12.565808 43.8457455,12.565808 C43.7558158,12.9055425 43.45605,13.1053864 43.2761905,13.3851678 C43.0720034,13.4863149 42.8888962,13.6253408 42.736612,13.7948478 C42.736612,13.9647151 42.5967213,14.1845433 42.5767369,14.3843872 C42.0371585,14.8340359 41.3476971,14.6042155 40.9480094,15.5135051 C40.8938641,15.7227754 40.8061252,15.9218751 40.6882123,16.1030445 L40.0587041,16.1030445 C40.0587041,15.9032006 40.1985948,15.5534739 40.4284153,15.5534739 C40.4284153,15.4635441 40.0287276,14.9639344 40.208587,14.9639344 L40.208587,15.0039032 C40.208587,14.6741608 40.6482436,14.5642467 40.5283372,14.114598 C40.4931695,13.9953442 40.4080683,13.8971709 40.2950129,13.8454337 C40.1819576,13.7936966 40.052034,13.7934686 39.9387978,13.8448088 L38.2401249,15.923185 C38.1601874,16.0430913 37.520687,16.1629977 37.3608119,16.2029664 C37.2009367,16.2429352 37.0210773,16.8224824 37.3608119,16.9823575 C37.3608119,17.162217 37.5007026,17.2521467 37.5007026,17.4320062 C37.5007026,17.6118657 38.090242,17.2021858 38.350039,17.3120999 C38.4313612,17.4775925 38.478916,17.6576216 38.4899297,17.8416862 C38.5940053,18.0054927 38.7385454,18.1397085 38.9096019,18.2313817 C39.2992974,18.2313817 39.2992974,17.3021077 40.0587041,17.3021077 C40.3784543,17.212178 40.6682279,17.5519126 41.0579235,17.4419985 C41.2437585,17.3953415 41.4406976,17.4318117 41.597502,17.5419204 C41.597502,17.6018735 41.597502,18.0215457 41.4775956,18.0215457 C41.2033121,18.1794942 40.9157807,18.3132297 40.618267,18.4212334 C40.6882123,18.5411397 39.9188134,19.330523 39.8088993,19.2605777 C39.8088993,19.3405152 39.5191257,19.7202185 39.5191257,19.7302108 C39.4698639,19.7814728 39.4323568,19.8428481 39.4092116,19.9100703 C39.3533778,20.1508141 39.3100204,20.394282 39.279313,20.6395004 C39.279313,20.6894614 39.3892272,20.7294301 39.3892272,20.7494145 C40.5283372,20.9092896 40.568306,22.6379391 40.9779859,22.837783 L40.9779859,22.8977362 C41.2677596,23.147541 41.6174863,23.2874317 41.9772053,23.5272444 C42.3669008,23.7270882 41.5775176,23.7470726 41.5675254,23.8769711 C41.8637372,24.0026193 42.0950692,24.244795 42.2070258,24.5464481 C42.2070258,24.9960968 41.2078064,25.3957845 41.0079625,25.6455894 C41.1240587,25.6605417 41.2415932,25.6605417 41.3576893,25.6455894 C41.6074941,25.1859485 42.3569087,25.5356752 42.6466823,25.6455894 C42.5867291,25.8953942 42.1470726,26.0153005 42.1470726,26.2251366 C42.2270102,26.2251366 42.4668228,25.9553474 42.5467603,26.0852459 C42.6266978,26.2151444 42.6366901,26.3750195 42.5467603,26.454957 C42.4568306,26.5348946 42.3169399,26.454957 42.2170179,26.5748634 C42.2170179,27.1044496 42.8265417,27.8338798 41.9472287,27.8338798 C41.6977419,28.1593161 41.5736128,28.5636223 41.597502,28.9729898 C41.3576893,29.1328649 41.3976581,29.5025761 41.187822,29.6824356 C41.0679157,29.6824356 40.8580796,29.6824356 40.828103,29.7423888 C40.7981265,29.8023419 41.0679157,29.9722092 41.187822,30.0021858 C41.187822,30.2220141 40.8181109,30.1220921 40.9180328,30.4318501 C40.9577807,30.6498816 40.9577807,30.8733034 40.9180328,31.0913349 C40.4284153,31.0913349 40.7781421,31.5409836 40.3984387,31.7308353 C40.2885246,32.0605777 39.7889149,32.0505855 39.7589383,32.1604996 C39.7289617,32.2704138 39.1494145,33.2696331 38.9495706,33.2696331 C38.709758,33.3495707 38.1901639,33.4395004 38.1901639,33.729274 L38.1901639,33.9191257 C37.6905542,34.1989071 37.0410617,34.918345 36.3915691,34.658548 C36.131772,34.5786104 36.0918033,35.1581577 35.8419985,35.1581577 C35.5921936,35.1581577 35.3323966,34.9083529 35.3323966,34.7984387 C35.1325527,34.658548 35.1225605,34.9083529 35.0925839,34.968306 C34.8584156,35.4714235 34.375864,35.8133891 33.8235753,35.8676034 C33.5338017,35.9575332 32.0849336,36.1074161 32.0349727,36.3772053 C32.0349727,36.5071038 31.945043,36.7868852 31.7851678,36.7868852 C31.6552693,36.9467603 31.7851678,36.876815 31.7851678,37.0466823 L32.0049961,37.0466823 C32.029265,37.1720867 32.029265,37.3009812 32.0049961,37.4263856 C31.8507788,37.5244857 31.6650048,37.5602115 31.485402,37.5263076 C31.3954723,37.5263076 31.2056206,37.0766589 31.1156909,36.9667447 C30.7859485,36.7968774 31.1156909,36.4571429 31.1156909,36.2672912 L30.9758001,36.2672912 C30.7923658,36.3484088 30.6016632,36.4119764 30.4062451,36.4571429 C30.4062451,36.4571429 29.9166276,35.7676815 29.8966432,36.1174083 C30.0065574,36.1174083 30.036534,36.2672912 29.8966432,36.2872756 C29.7567525,36.3072599 29.1172521,36.2872756 29.0473068,36.2872756 C28.7875097,36.2872756 27.818267,36.0174863 27.8982045,35.5978142 C27.8982045,35.4679157 27.9781421,35.1681499 27.9781421,35.0282592 L27.9781421,35.0782201 L26.9789227,34.8983607 C26.8190476,34.8983607 26.8590164,34.6785324 26.7690867,34.6485558 C26.6791569,34.6185793 26.529274,34.6485558 26.4992974,34.6485558 C26.4693208,34.6485558 26.1195941,35.1481655 25.9497268,35.1481655 C25.7998439,35.1481655 25.6799376,35.1481655 25.5600312,35.2480874 C25.5600312,35.5178767 25.1903201,35.4079625 25.0804059,35.4079625 C25.0161232,35.3597505 24.9559626,35.3062744 24.9005465,35.2480874 C24.7648076,35.274898 24.6312195,35.3116347 24.5008587,35.3580015 C24.2410616,35.4379391 24.0612022,35.1981265 23.8313817,35.1981265 C23.8313817,35.1981265 23.6215457,35.4379391 23.5815769,35.4379391 C23.5416081,35.4379391 23.121936,35.3480094 23.0419985,35.4379391 C22.9620609,35.5278689 22.9620609,35.5778298 22.9620609,35.7077283 C23.067151,35.8890088 23.1125926,36.0987394 23.0919594,36.30726 C23.2018735,36.30726 23.1918813,36.826854 23.171897,36.8967994 C23.1519126,36.9667448 22.9920375,37.0167057 22.862139,36.9967213 C22.5952842,36.9111624 22.4190941,36.6571209 22.4324746,36.3772053 C22.4324746,36.1873536 22.4324746,36.2872756 22.3125683,36.1473849 C22.0327869,36.1473849 22.0427791,36.4371585 21.8529274,36.4371585 C21.7230289,36.4371585 21.7030445,36.3772053 21.573146,36.3672131 C21.573146,36.157377 21.0435597,35.7676815 21.0435597,35.7576893 C21.0435597,35.7476971 20.7737705,35.7576893 20.7138173,35.7576893 C20.6433142,35.7155836 20.5874917,35.6527833 20.5539422,35.5778298 C20.5697373,35.2716061 20.5697373,34.9647717 20.5539422,34.658548 C20.4240437,34.658548 20.334114,34.658548 20.2441842,34.4986729 C20.1542544,34.3387978 20.0143637,33.7892272 19.8444965,33.5693989 C19.6746292,33.3495707 19.4148322,33.729274 19.1850117,33.729274 C18.8752537,33.6493364 19.0051522,33.4794692 18.9352069,33.1797034 C18.8652615,32.8799376 19.0151444,32.5901639 19.095082,32.2804059 C19.095082,32.0905543 19.6446526,31.8407494 19.7845433,31.6908665 C19.9244341,31.5409836 19.8345043,31.6908665 19.8644809,31.6309133 C19.8944575,31.5709602 20.2941452,30.0421546 20.1042935,29.8323185 C20.1042935,29.7224044 19.714598,29.5825137 19.714598,29.4725995 C19.714598,29.3626854 19.6446526,29.342701 19.6346604,29.342701 C19.6336274,29.1000625 19.532378,28.8686352 19.354879,28.7032006 C19.2349727,28.7032006 19.1050742,28.6332553 19.0251366,28.7032006 C18.9451991,28.7731459 19.0251366,29.29274 18.735363,29.3327088 C18.4455894,29.3726776 18.325683,29.032943 18.1358314,28.9030445 C17.9459797,28.773146 17.6062451,28.6332553 17.4163934,28.5733021 C17.1948567,28.6687738 17.0020058,28.8202995 16.8568306,29.0129586 C16.3472287,29.0129586 15.8576112,29.6924278 15.4179547,29.8523029 C15.228103,29.9522248 13.9191257,30.2220141 13.6693208,29.8523029 C13.5693989,29.752381 13.6693208,29.3626854 13.6693208,29.2227947 C13.4894614,29.1028884 13.3895394,29.0529274 13.3895394,28.8131148 C13.2362006,28.761503 13.0792191,28.7214226 12.9199063,28.6932084 C12.5701795,28.6032787 12.3403591,28.0936768 11.920687,28.0936768 C11.6433008,28.1675621 11.3822937,28.2929811 11.1512881,28.463388 L11.1512881,28.9330211 C11.1512881,29.0429352 10.9314598,29.0529274 10.6716628,28.9330211 C10.5117877,28.6232631 10.6716628,28.4034348 10.6716628,28.103669 C10.4610418,28.0136907 10.222799,28.0136907 10.012178,28.103669 C9.84231068,28.103669 9.6824356,28.363466 9.48259171,28.3035129 C9.28274782,28.2435597 8.99297424,28.0936768 8.89305232,27.9138173 C8.5954021,27.870122 8.29441352,27.8534004 7.99375489,27.8638563 C7.75969461,27.6102323 7.5490038,27.3359998 7.3642467,27.0444965 C7.19437939,26.9345823 6.99453555,27.0444965 6.82466824,26.8246682 L6.75472286,26.7647151 C6.63193336,26.5256706 6.56045999,26.2636015 6.54488679,25.9953162 C6.42498047,25.9153786 6.05526932,25.9953162 5.99531616,25.8754098 C5.935363,25.7555035 5.73551911,25.525683 5.73551911,25.4757221 C5.58563621,25.3558158 5.3058548,25.2758782 5.18594848,25.1359875 C5.18594848,25.006089 4.75628417,24.5064793 4.75628417,24.5064793 C4.31662763,24.5764246 3.81701799,24.8162373 3.47728337,24.386573 C3.38087355,24.2204113 3.33894116,24.0282212 3.35737705,23.8370023 C2.89773616,23.4373146 2.75784543,22.9976581 2.14832164,22.9976581 C1.99843874,22.9976581 2.0583919,22.9976581 1.99843874,22.8877439 C1.99843874,22.6779079 1.99843874,22.5679937 2.13832941,22.428103 C2.35815766,22.2782201 2.21826698,21.6187354 2.21826698,21.4288837 C2.21826698,21.1491023 2.21826698,21.2790008 2.26822796,21.1191257 C2.50804061,21.1191257 2.65792351,21.2989852 2.86775958,21.3089774 C2.86775958,21.2190476 2.91772056,21.3089774 2.91772052,21.1590945 C2.87975901,20.7668609 2.80617946,20.378896 2.69789227,20 C2.59797035,19.6802498 2.9476971,19.5103825 2.9476971,19.2705699 C2.9476971,19.0307572 2.9476971,19.1106948 2.837783,19.0607338 C2.45807963,18.9807963 2.39812646,18.5111632 2.48805621,18.2213896 C2.57798595,17.9316159 1.48883686,17.0223263 1.30897738,17.2221702 C1.21414242,17.183524 1.14355582,17.1017922 1.11912567,17.0023419 C1.11912567,16.8124903 1.29898515,16.282904 1.19906323,16.1230289 C0.928203106,15.9392559 0.674082586,15.731947 0.439656534,15.5035129 C0.249804871,15.2137393 0.489617518,14.9339578 0.779391101,14.8640125 C0.887564259,14.5425322 0.915016253,14.1993823 0.859328665,13.8647931 C0.859328665,13.495082 0.459640937,13.7348946 0.259797049,13.7448868 C0.0599531616,13.754879 -0.0499609368,13.5550351 0.0999219204,13.2053083 C0.429664309,13.135363 0.339734567,12.7356752 0.189851663,12.7356753 C0.0399687588,12.7356753 0.52958623,12.4259173 0.579547213,12.2160812 C0.859328618,12.2160812 1.74863386,11.4466822 2.25823574,11.6165496 C2.61795471,11.6765027 2.3381733,12.1161593 2.81779859,12.1361437 C3.33776421,11.6483716 4.0498106,11.4208103 4.75628417,11.5166276 C5.07251479,11.4838061 5.386269,11.4304011 5.69555035,11.3567526 C5.98532398,11.2068696 6.00530834,11.0669789 5.97533176,10.8971116 C5.97533176,10.8971116 6.79469162,9.89789227 6.80468384,9.89789227 C6.88946648,9.47913767 6.88946648,9.0476383 6.80468384,8.6288837 C6.80468384,8.48899297 6.864637,8.30913349 6.80468384,8.21920375 C6.74473068,8.129274 6.80468384,7.98938328 6.93458234,7.98938328 C7.58407494,7.78953939 8.09367681,8.16924276 8.70320061,8.16924276 C8.86307569,7.9793911 8.52334112,7.43981265 9.14285714,7.17002342 C9.29769555,6.91168388 9.43780968,6.64479983 9.56252927,6.37064792 C9.64246684,6.26073377 9.78235752,6.30070258 9.89227166,6.31069475 C9.89227166,6.59047616 11.2112412,6.79032005 11.2711944,6.78032787 C11.4710383,6.78032787 11.511007,6.72037471 11.560968,6.54051522 L11.560968,5.81108511 C11.6808743,5.37142857 12.3203747,5.41139738 12.6601093,5.30148323 C12.8599532,5.13161593 12.7800156,4.80187354 13.1896956,4.80187354 C13.3795472,4.74192037 13.6693208,4.8618267 13.6693208,5.09164717 C13.689675,5.21616098 13.7163554,5.33955776 13.7492584,5.46135831 C13.7492584,5.6212334 14.4786885,6.24074941 14.608587,6.21077283 C14.7973971,6.27772147 14.9683218,6.38711329 15.1081967,6.53052304 C15.1081967,6.77033569 15.1081967,7.24996098 15.3080406,7.37985948 C15.3779859,7.68961747 15.6277908,8.18922717 15.3080406,8.45901639 C14.9882904,8.79875096 14.9183451,9.04855583 15.228103,9.39828258 C15.4797784,9.51920072 15.7500121,9.59689292 16.0274785,9.62810304 C16.1773615,9.62810304 18.6854021,10.5274005 18.5954723,11.1569087 C18.5881954,11.4376556 18.7096501,11.7063283 18.9252147,11.8863388 L18.9252147,12.3259953 L18.99516,12.3959407 C19.2749415,12.3959407 19.5846995,12.515847 19.9044496,12.515847 C20.2287445,12.6356029 20.5631694,12.7258977 20.903669,12.7856362 L22.6722873,12.7856362 C23.2818111,12.8555815 23.5915691,13.4750976 24.0412178,13.545043 C24.2510539,13.3152225 24.6807182,13.6349727 24.7706479,13.7648712 C25.2103044,13.7648712 25.3202185,14.0046838 25.5700234,14.1945355 C25.6224024,14.2543046 25.7009896,14.2842426 25.7798595,14.2744731 C25.909758,13.8847775 28.4777518,13.3352069 28.4777518,12.9555035 C28.8874317,12.8355972 29.4769711,13.1953162 29.936612,13.0953942 C30.1245611,12.7867103 30.360698,12.5100927 30.6360656,12.2760343 C30.8359095,12.0961748 31.6352849,11.5166276 31.535363,11.4067135 C31.4554254,11.1269321 30.9857924,9.90788445 31.7152225,9.90788445 C32.4446526,9.90788445 32.6245121,10.4774395 32.6245121,10.2576112 C32.8743169,10.2576112 33.3739266,9.64808745 33.4338798,9.41826698 C33.7336456,9.35831382 34.2632319,9.34832164 34.4330992,9.06854019 C34.6029665,8.78875874 34.8128025,8.39906323 34.8627635,8.39906323 C35.0252814,8.2542041 35.2268371,8.16037645 35.4423107,8.129274 C35.5971988,7.95654906 35.7882511,7.82008318 36.0018735,7.72958628 C36.0018735,7.72958628 37.0010929,7.65964094 37.1509758,7.61967213 C37.1575698,7.49652329 37.1575698,7.37310983 37.1509758,7.24996098 C37.0310695,6.84028103 36.5314598,6.59047621 36.1517564,6.37064792 C35.9818891,6.37064792 35.9119438,6.5704918 35.6821233,6.5704918 C35.4523029,6.5704918 35.5722092,6.79032005 35.4722873,6.92021859 C35.3723653,7.05011714 34.7928181,6.71038253 34.6429352,6.75035129 C34.4031226,6.75035129 34.2132709,6.95019518 33.8535519,6.94020295 C33.8535519,6.84028103 33.7236534,6.79032005 33.7136612,6.64043714 C33.703669,6.49055424 34.0833724,6.29071035 34.013427,6.06088993 C34.0528303,5.60342322 34.1399016,5.15132236 34.273224,4.71194379 C34.3158931,4.64428509 34.3788395,4.59182974 34.4530835,4.56206089 C34.9464094,4.65175351 35.4542333,4.52023077 35.8419985,4.20234192 L35.971897,4.11241218 C35.971897,3.83263077 36.1617486,3.432943 36.1617486,3.11319283 C36.2347919,2.71650256 36.3952153,2.34104373 36.6313817,2.01405152 C36.7512881,1.73427012 36.4115535,1.42451208 36.181733,1.30460576 L36.181733,1.19469166 C36.1751969,0.999592295 36.2745472,0.816176299 36.4415301,0.71506637 C36.6713505,0.655113208 36.8811866,0.585167869 37.0910226,0.515222482 C37.2209211,0.255425433 37.99032,0.0256050117 38.2800937,0.0256050117 C38.5698673,0.0256050117 38.7197502,0.185480094 38.9195941,0.185480094 C39.2252875,0.133851404 39.5392259,0.164900247 39.8288837,0.275409836 L39.8888369,0.275409836 C39.8888369,0.275409836 41.0379391,1.47447307 41.0379391,1.70429354 L41.0379391,1.7642467 L41.0978923,1.7642467 C41.2577674,1.9141296 41.4476191,2.10398126 41.6174863,2.23387977 C41.6221364,2.47042485 41.7512922,2.68695073 41.9572209,2.8034348 C41.9572209,2.8034348 42.0371585,3.23309911 42.1370804,3.23309916 C42.4157265,3.19745413 42.6977786,3.19745413 42.9764247,3.23309916 C42.9764247,3.33302108 43.4160812,3.23309916 43.5459797,3.23309916 C43.6758782,3.23309916 43.7258392,3.3230289 43.7558158,3.35300548 C43.7558158,3.55284937 44.1854801,3.67275569 44.4153006,3.72271663 C44.4153006,3.96252927 44.7550351,4.64199845 45.0348165,4.64199845 L45.0947697,4.90179546 Z M41.3476971,33.8791569 C41.3476971,33.5893833 41.4176424,33.3395785 41.4376268,33.0298205 C41.4376268,32.6701015 41.6174863,32.5901639 41.6174863,32.2804059 C41.6819994,31.8378395 41.8931035,31.4297048 42.2170179,31.1213115 C42.3691267,31.0470735 42.5376008,31.012691 42.7066355,31.0213896 C43.3561281,31.1213115 42.9364559,31.5010148 42.9364559,31.7907884 C43.0038048,32.2540948 43.0138727,32.7239294 42.9664325,33.1896956 C42.9664325,33.3495706 42.8065574,33.4794692 42.8065574,33.5993755 C42.8065574,33.7192818 42.4068696,33.7692428 42.4068696,33.9990632 C42.2569867,34.3887588 42.4068696,34.6485558 42.1071038,34.9982826 C42.1071038,34.8783763 41.857299,34.7484778 41.8373146,34.5786104 C41.597502,34.2888368 41.4476191,34.2188915 41.3476971,33.8791569 Z M30.4562061,38.1058548 C30.8459016,38.1058548 31.6952381,37.7061671 32.1249024,37.8760343 C32.2348166,37.8760343 32.4346604,37.9859485 32.464637,38.1058548 C32.4946136,38.2257611 32.2947697,38.5654957 32.0649493,39.2649493 C31.8154829,39.6435372 31.4219175,39.903507 30.9758001,39.9843872 C30.8159251,39.9843872 30.1764246,39.7945356 30.1764247,39.6446526 C29.9166276,38.6454333 30.4961749,38.8952381 30.5461358,38.1558158 L30.4562061,38.1058548 Z" id="China"></path>
                </g>
            </g>
        </g>
    </g>
</svg>