<?xml version="1.0" encoding="UTF-8"?>
<svg width="22px" height="20px" viewBox="0 0 22 20" version="1.1" xmlns="http://www.w3.org/2000/svg" xmlns:xlink="http://www.w3.org/1999/xlink">
    <!-- Generator: Sketch 52.1 (67048) - http://www.bohemiancoding.com/sketch -->
    <title>entrance</title>
    <desc>Created with Sketch.</desc>
    <g id="新能源" stroke="none" stroke-width="1" fill="none" fill-rule="evenodd">
        <g id="home-" transform="translate(-1275.000000, -555.000000)" fill="#17AAA8" fill-rule="nonzero">
            <g id="Group" transform="translate(1275.000000, 554.000000)">
                <g id="Group-8" transform="translate(0.000000, 1.000000)">
                    <path d="M4.48795453,19.9963909 L4.48795453,6.68591537 C4.49907709,6.1803323 4.10018478,5.76048807 3.59469457,5.74573672 L0.893259941,5.74573672 C0.400613555,5.74573672 -1.68576264e-12,6.19146441 -1.68576264e-12,6.68591537 L-1.68576264e-12,19.9981954 L4.48795453,19.9981954 L4.48795453,19.9963909 Z M10.2102319,19.9963909 L10.2102319,0.974465391 C10.2102319,0.445727676 9.79879096,-7.10542736e-15 9.31697193,-7.10542736e-15 L6.6155373,-7.10542736e-15 C6.12108635,-7.10542736e-15 5.72227736,0.445727695 5.72227736,0.974465391 L5.72227736,19.9963909 L10.2102319,19.9963909 Z M15.9198773,19.9963909 L15.9198773,11.5853108 C15.9198773,11.0565731 15.5084363,10.6108454 15.0266173,10.6108454 L12.3378147,10.6108454 C11.8451683,10.6108454 11.4445547,11.0565731 11.4445547,11.5853108 L11.4445547,19.9981954 L15.9198773,19.9981954 L15.9198773,19.9963909 Z M21.6313273,19.9963909 L21.6313273,6.68591537 C21.6424498,6.1803323 21.2435575,5.76048807 20.7380673,5.74573672 L18.0474601,5.74573672 C17.5548137,5.74573672 17.1542001,6.19146441 17.1542001,6.68591537 L17.1542001,19.9981954 L21.6313273,19.9981954 L21.6313273,19.9963909 Z" id="entrance"></path>
                </g>
            </g>
        </g>
    </g>
</svg>