<?xml version="1.0" encoding="UTF-8"?>
<svg width="41px" height="40px" viewBox="0 0 41 40" version="1.1" xmlns="http://www.w3.org/2000/svg" xmlns:xlink="http://www.w3.org/1999/xlink">
    <!-- Generator: Sketch 52.1 (67048) - http://www.bohemiancoding.com/sketch -->
    <title>foreign</title>
    <desc>Created with Sketch.</desc>
    <g id="新能源" stroke="none" stroke-width="1" fill="none" fill-rule="evenodd">
        <g id="相关政策" transform="translate(-940.000000, -156.000000)" fill="#666666" fill-rule="nonzero">
            <g id="Group" transform="translate(840.000000, 131.000000)">
                <g id="国外游" transform="translate(100.000000, 25.000000)">
                    <g id="Group-8">
                        <path d="M18.5822163,0.0453616468 C46.0564802,-0.809561863 47.3110189,38.123961 22.3729023,39.90348 C5.81560997,41.0850184 -3.68972828,26.3278804 1.42428082,12.999239 C3.37309816,7.92006587 7.62175515,3.49101625 12.5968641,1.44035363 C14.6066999,0.796886674 15.1015038,0.465612134 18.5822163,0.0453616468 Z M22.7718518,20.5721794 C22.7718518,20.0405426 22.7718518,19.5093495 22.7718518,18.9779346 C22.3063367,19.1767437 21.8410436,19.3762184 21.3753066,19.5754713 C21.2423974,19.3762184 21.1094882,19.1767437 20.9763571,18.9779346 C20.8043961,17.9142171 20.7786574,17.1888745 21.17561,16.3869816 C21.5082158,16.2538505 21.8408217,16.1211632 22.1732056,15.9884758 C23.3702761,16.4533252 24.5673465,16.9183965 25.7646388,17.3834678 C25.7646388,16.7191437 25.7646388,16.0548195 25.7646388,15.3907172 C26.4970817,15.1701634 30.1439861,12.6783931 30.5526986,12.0027528 C30.2868802,11.3384286 30.0208399,10.6738826 29.7545777,10.0097803 C30.353002,10.0097803 30.95187,10.0097803 31.5502943,10.0097803 C31.5502943,10.3419424 31.5502943,10.6743263 31.5502943,11.0062665 C31.7495471,11.0726102 31.9494657,11.1391757 32.1487185,11.2055194 C32.2818496,11.0726102 32.4145369,10.9399229 32.547668,10.8070137 C31.2345517,8.16125504 29.1991991,6.10260455 25.9638917,5.62532958 C26.3637287,6.25126761 26.7771008,6.70324767 26.5623159,7.4188273 C26.3675008,8.64807107 26.0098219,8.99066176 25.1657707,9.01307216 C25.0086761,8.00948559 25.0224329,7.47185785 24.1681751,7.61808017 C23.4368416,7.15323077 22.7050644,6.68815948 21.973509,6.22308819 C22.1729837,5.82458245 22.3729023,5.42585482 22.5719333,5.02734908 C23.3614007,4.66833889 23.5588784,4.35104312 23.9687003,3.6323571 C23.9687003,3.56601343 23.9687003,3.49944789 23.9687003,3.43310423 C22.0061261,3.08718527 21.5991887,3.22497595 20.1780143,4.03108472 C19.4466808,3.43332611 18.7149036,2.83534561 17.9833482,2.237587 C16.9859744,2.37027432 15.9881569,2.50340542 14.9907831,2.63609274 C15.7192321,2.84710553 15.5774475,2.79829079 15.9883788,3.23385135 C15.9883788,3.30019502 15.9883788,3.36676056 15.9883788,3.43310423 C11.9844611,3.38428949 9.03449794,4.84096555 6.61151203,6.42256295 C6.41203727,7.15323077 6.21256251,7.88412048 6.01308776,8.6147883 C7.37257811,8.25666566 9.08065005,6.90804767 11.200319,7.81777681 C14.1735801,9.15640997 12.0008806,11.3013738 13.394985,14.1949781 C14.2255012,15.9188039 23.7228516,22.9330375 25.7648607,22.5653738 C25.1588923,22.1240442 25.2591844,21.4788022 24.767265,20.970907 C24.1020533,20.8382197 23.4368416,20.7050886 22.7718518,20.5721794 Z M29.7547996,35.1205235 C29.7547996,34.7885833 29.7547996,34.4564212 29.7547996,34.1242592 C32.5556559,33.3074999 33.6570938,29.8263437 35.3412022,27.9463107 C35.2746366,27.7470579 35.2080711,27.5475831 35.1417274,27.3483302 C34.7501001,26.6653677 27.1172507,21.6767237 25.5653859,24.1596186 C25.1202843,25.3043242 24.4663887,26.5231393 24.3683155,28.1455636 C24.9165937,29.4744338 26.2283788,29.9403926 26.5627597,31.1350223 C27.4305525,34.2338704 24.1515337,36.28653 25.9643354,38.110426 C26.030901,38.110426 26.0974665,38.110426 26.1638102,38.110426 C26.5101729,36.9273343 27.6741824,35.7952763 28.557951,35.1207454 C28.9569005,35.1205235 29.3558501,35.1205235 29.7547996,35.1205235 Z" id="foreign"></path>
                    </g>
                </g>
            </g>
        </g>
    </g>
</svg>