<?xml version="1.0" encoding="UTF-8"?>
<svg width="235px" height="26px" viewBox="0 0 235 26" version="1.1" xmlns="http://www.w3.org/2000/svg" xmlns:xlink="http://www.w3.org/1999/xlink">
    <!-- Generator: Sketch 52.1 (67048) - http://www.bohemiancoding.com/sketch -->
    <title>logo</title>
    <desc>Created with Sketch.</desc>
    <g id="新能源" stroke="none" stroke-width="1" fill="none" fill-rule="evenodd">
        <g id="home-" transform="translate(-361.000000, -58.000000)" fill="#F9F9F9">
            <g id="导航">
                <g id="logo-2" transform="translate(361.000000, 58.000000)">
                    <path d="M12.9338907,24.0976562 L9.72197667,24.0976562 L8.94756261,16.8232422 L12.0706095,16.8232422 L12.9338907,24.0976562 Z M13.4924845,2.40136719 L23.7756876,1.42382812 L22.9251017,4.4453125 L16.8821329,5.20703125 L16.8821329,7.80957031 L24.2327189,7.80957031 L23.1790079,10.6533203 L22.493461,10.640625 L22.493461,23.5390625 L19.1292032,25.0751953 L19.1292032,10.640625 L16.8821329,10.640625 L16.8821329,23.7929688 L13.4924845,25.2910156 L13.4924845,2.40136719 Z M8.43975011,15.5029297 L8.45244542,21.8759766 L5.49443761,24.9101562 L4.21221104,24.9101562 L4.21221104,21.9521484 L5.06279698,21.9521484 L5.05010167,15.5029297 L0.606742293,15.5029297 L0.606742293,12.8623047 L5.05010167,12.8623047 L5.05010167,11.4277344 L8.43975011,11.4277344 L8.43975011,12.8623047 L12.9085001,12.8623047 L11.7405314,15.5029297 L8.43975011,15.5029297 Z M0.263968855,24.1865234 L1.40654698,16.8232422 L4.52959386,16.8232422 L3.59014073,24.1865234 L0.263968855,24.1865234 Z M8.31279698,6.09570312 L11.7786173,6.09570312 L11.0803751,8.12695312 L12.8704142,8.12695312 L11.7151407,10.7929688 L0.517875105,10.7929688 L0.517875105,8.12695312 L1.95244542,8.12695312 L1.39385167,6.09570312 L5.01201573,6.09570312 L5.69756261,8.12695312 L7.48760167,8.12695312 L8.31279698,6.09570312 Z M0.606742293,2.46484375 L4.55498448,2.46484375 C4.62269315,2.31249924 4.77291951,2.04590034 5.00566807,1.66503906 C5.23841663,1.28417778 5.70179091,1.08528654 6.39580479,1.06835938 C7.08981868,1.05143221 7.61455302,1.1466461 7.97002354,1.35400391 C8.32549407,1.56136171 8.65133717,1.93163796 8.94756261,2.46484375 L12.8704142,2.46484375 L11.6897501,5.09277344 L0.606742293,5.09277344 L0.606742293,2.46484375 Z M34.0281173,19.1337891 L33.2283126,21.0888672 L31.1208907,21.0888672 L31.1208907,23.7929688 L27.312297,25.2529297 L27.312297,9.70117188 L37.8494063,9.70117188 L37.8494063,21.8759766 L34.7136641,24.9101562 L32.1619063,24.9101562 L32.1619063,22.2949219 L34.0281173,22.2949219 L34.0281173,19.1337891 Z M34.0281173,18.5625 L34.0281173,14.6396484 L33.1775313,16.6835938 L31.1208907,16.6835938 L31.1208907,18.5625 L34.0281173,18.5625 Z M34.0281173,14.1572266 L34.0281173,12.2148438 L31.1208907,12.2148438 L31.1208907,14.1572266 L34.0281173,14.1572266 Z M31.1208907,5.98144531 L34.1677657,5.98144531 L33.5203048,3.58203125 L37.0876876,3.58203125 L38.3699141,8.52050781 L34.8025313,8.52050781 L34.2947188,6.54003906 L33.4314376,8.52050781 L26.9949141,8.52050781 L26.9949141,5.765625 L30.0290938,1.6015625 L34.1042891,1.6015625 L31.1208907,5.98144531 Z M43.0671798,13.6113281 L43.0671798,15.8457031 L49.9099532,14.2080078 L49.3767501,17.2548828 L43.0671798,18.8417969 L43.0671798,22.2949219 L50.0876876,22.2949219 L48.8816329,24.8339844 L39.296672,24.8339844 L39.296672,13.6113281 L43.0671798,13.6113281 Z M39.296672,1.6015625 L43.0671798,1.6015625 L43.0671798,4.00097656 L49.7195235,2.24902344 L49.211711,5.47363281 L43.117961,7.04785156 L43.117961,10.3105469 L50.062297,10.3105469 L48.8816329,12.8496094 L39.296672,12.8496094 L39.296672,1.6015625 Z M71.2453907,4.17871094 L70.7629688,5.43554688 L75.8537891,5.43554688 L75.8410938,13.6494141 L72.4895313,16.6201172 L71.3215626,16.5947266 L71.2961719,22.1679688 L68.5158985,24.9482422 L66.8528126,24.9482422 L66.8528126,22.21875 L67.9319141,22.21875 L67.9319141,16.5947266 L63.8694141,16.5947266 L63.8694141,5.43554688 L66.8528126,5.43554688 L67.3225391,4.17871094 L62.5744922,4.17871094 L62.5744922,23.9072266 L59.1848438,25.5068359 L59.1848438,1.56347656 L76.3235157,1.56347656 L75.1301563,4.17871094 L71.2453907,4.17871094 Z M67.2590626,8.06347656 L67.2590626,9.63769531 L72.3625782,9.63769531 L71.1692188,12.2021484 L67.2590626,12.2021484 L67.2590626,13.9921875 L72.4895313,13.9921875 L72.4895313,8.06347656 L67.2590626,8.06347656 Z M55.7571094,8.41894531 C56.1295071,8.4274089 56.5018992,8.53108625 56.8742969,8.72998047 C57.2466946,8.92887469 57.536568,9.21451637 57.7439258,9.58691406 C57.9512836,9.95931176 58.0570769,10.3528625 58.0613087,10.7675781 C58.0655404,11.1822937 57.9660948,11.567381 57.7629688,11.9228516 C57.5513792,12.2867857 57.2657375,12.5745432 56.9060352,12.7861328 C56.5463329,12.9977224 56.1633615,13.1035156 55.7571094,13.1035156 C55.3423938,13.1119792 54.9573065,13.0104177 54.601836,12.7988281 C54.2463655,12.5872385 53.9670714,12.2973651 53.7639454,11.9291992 C53.5608194,11.5610333 53.4592579,11.1695984 53.4592579,10.7548828 C53.4592579,10.3570944 53.5629352,9.96989121 53.770293,9.59326172 C53.9776508,9.21663223 54.2654084,8.92675883 54.6335743,8.72363281 C55.0017402,8.5205068 55.3762482,8.41894531 55.7571094,8.41894531 Z M55.7571094,1.51269531 C56.1210435,1.51269531 56.4870881,1.61214093 56.855254,1.81103516 C57.2234199,2.00992938 57.5132933,2.29557105 57.7248829,2.66796875 C57.9364725,3.04036645 58.0443815,3.43180133 58.0486133,3.84228516 C58.0528451,4.25276898 57.9491678,4.63574041 57.7375782,4.99121094 C57.5259886,5.34668146 57.2424628,5.63020728 56.8869922,5.84179688 C56.5315217,6.05338647 56.1548979,6.15494796 55.7571094,6.14648438 C55.3508574,6.14648438 54.967886,6.04280703 54.6081837,5.83544922 C54.2484813,5.62809141 53.9670714,5.34879733 53.7639454,4.99755859 C53.5608194,4.64631986 53.4634896,4.25488497 53.4719532,3.82324219 C53.4719532,3.41699016 53.5756305,3.029787 53.7829883,2.66162109 C53.9903461,2.29345519 54.2781037,2.01204524 54.6462696,1.81738281 C55.0144355,1.62272038 55.3847117,1.5211589 55.7571094,1.51269531 Z M53.9543751,15.6171875 L57.6106251,15.6171875 L57.6106251,23.6660156 L53.9543751,25.2529297 L53.9543751,15.6171875 Z M74.8762501,17.4199219 L76.0823047,24.8720703 L72.9084766,24.8720703 L71.7024219,17.4199219 L74.8762501,17.4199219 Z M67.5891407,17.4199219 L66.0530079,24.8720703 L62.8791797,24.8720703 L64.4153126,17.4199219 L67.5891407,17.4199219 Z M80.2282891,15.8710938 L84.2146172,15.8710938 L84.2019219,23.6660156 L80.2028985,25.2529297 L80.2282891,15.8710938 Z M92.0603203,2.98535156 L102.584734,2.98535156 L101.251727,5.98144531 L91.0193047,5.98144531 L90.4734063,7.40332031 L86.4109063,7.40332031 L88.6833672,1.53808594 L92.6189141,1.53808594 L92.0603203,2.98535156 Z M103.232195,21.8886719 L101.911883,24.7451172 L97.328875,24.7324219 L97.3415703,17.0898438 L87.2868828,17.0771484 L87.2868828,14.1699219 L101.162859,14.1826172 L101.150164,21.8759766 L103.232195,21.8886719 Z M87.1980157,8.63476562 L102.673602,8.63476562 L101.327898,11.6308594 L87.1980157,11.6308594 L87.1980157,8.63476562 Z M81.8532891,1.69042969 C82.242614,1.69042969 82.6361647,1.7962229 83.0339532,2.0078125 C83.4317416,2.2194021 83.7406578,2.51985482 83.960711,2.90917969 C84.1807642,3.29850455 84.2907891,3.70898222 84.2907891,4.140625 C84.2823255,4.58073137 84.1723006,4.99120903 83.960711,5.37207031 C83.7491214,5.75293159 83.4529004,6.04915259 83.0720391,6.26074219 C82.6911778,6.47233179 82.2849319,6.578125 81.8532891,6.578125 C81.4131827,6.578125 81.0027051,6.47233179 80.6218438,6.26074219 C80.2409825,6.04915259 79.9447615,5.75293159 79.7331719,5.37207031 C79.5215823,4.99120903 79.4157891,4.58284723 79.4157891,4.14697266 C79.4157891,3.71109808 79.5215823,3.30273628 79.7331719,2.921875 C79.9532251,2.52408655 80.2621413,2.2194021 80.6599297,2.0078125 C81.0577182,1.7962229 81.4555007,1.69042969 81.8532891,1.69042969 Z M82.0691094,8.46972656 C82.4753614,8.46972656 82.8773757,8.57551978 83.2751641,8.78710938 C83.6729525,8.99869897 83.9861005,9.30549929 84.2146172,9.70751953 C84.443134,10.1095398 84.5573907,10.526365 84.5573907,10.9580078 C84.5489271,11.4065778 84.4346704,11.8212872 84.2146172,12.2021484 C83.994564,12.5830097 83.6898796,12.8876942 83.3005547,13.1162109 C82.9112299,13.3447277 82.5007522,13.4547526 82.0691094,13.4462891 C81.629003,13.4462891 81.2164095,13.3341483 80.8313164,13.1098633 C80.4462234,12.8855783 80.1415389,12.5808939 79.9172539,12.1958008 C79.692969,11.8107077 79.5787123,11.4023459 79.5744805,10.9707031 C79.5702487,10.5390603 79.6866212,10.1201192 79.9236016,9.71386719 C80.1605819,9.30761516 80.4758457,9.00081484 80.8694024,8.79345703 C81.262959,8.58609922 81.6628574,8.47819015 82.0691094,8.46972656 Z M115.884039,12.3417969 L115.884039,8.25390625 L120.048102,8.25390625 L120.048102,12.3417969 L128.630133,12.3417969 L127.424078,15.3505859 L120.048102,15.3505859 L120.048102,19.171875 L128.706305,19.171875 L127.512945,22.2695312 L120.048102,22.2695312 L120.048102,23.3359375 L115.884039,25.1894531 L115.884039,22.2695312 L106.083258,22.2695312 L106.083258,19.171875 L115.884039,19.171875 L115.884039,15.3505859 L106.172125,15.3505859 L106.18482,11.7705078 L108.965094,5.91796875 L106.172125,5.91796875 L106.172125,2.78222656 L110.336188,2.78222656 L110.970953,1.6015625 L115.363531,1.6015625 L114.855719,2.78222656 L128.706305,2.78222656 L127.512945,5.91796875 L113.484625,5.91796875 L110.24732,12.3417969 L115.884039,12.3417969 Z M132.344477,5.38476562 L132.357172,2.515625 L141.104242,2.50292969 C141.222732,2.29980367 141.360264,2.09244897 141.51684,1.88085938 C141.673416,1.66926978 141.959058,1.4428723 142.373773,1.20166016 C142.788489,0.960448013 143.26879,0.83984375 143.814691,0.83984375 C144.360593,0.83984375 144.857821,0.971027334 145.306391,1.23339844 C145.754961,1.49576954 146.068108,1.76660017 146.245844,2.04589844 L146.537836,2.50292969 L154.980219,2.50292969 L153.393305,5.38476562 L132.344477,5.38476562 Z M138.044672,6.66699219 L142.361078,10.1962891 L136.508539,10.1835938 L132.738031,6.66699219 L138.044672,6.66699219 Z M154.396234,6.50195312 L150.486078,10.1835938 L145.217523,10.1708984 L149.102289,6.50195312 L154.396234,6.50195312 Z M132.852289,11.6943359 L155.526117,11.6943359 L153.901117,14.7792969 L137.105219,14.7792969 L137.105219,23.5390625 L132.864984,25.1259766 L132.852289,11.6943359 Z M158.694562,21.7109375 L165.131086,21.7109375 L165.131086,1.14453125 L169.003156,1.14453125 L169.003156,21.7109375 L170.818586,21.7109375 L170.818586,1.14453125 L174.690656,1.14453125 L174.690656,21.7109375 L182.269758,21.7109375 L180.593977,24.7705078 L158.694562,24.7705078 L158.694562,21.7109375 Z M181.076398,2.22363281 L178.9055,18.4609375 L175.300031,18.4609375 L177.559797,2.22363281 L181.076398,2.22363281 Z M158.745344,2.22363281 L162.274641,2.22363281 L164.534406,18.4609375 L160.928937,18.4609375 L158.745344,2.22363281 Z M195.06125,13.9287109 L189.310273,24.9101562 L184.727266,24.9101562 L190.478242,13.9287109 L184.613008,13.9287109 L184.613008,11.2119141 L206.791719,11.2119141 L206.791719,21.4316406 L203.18625,24.8974609 L194.591523,24.8974609 L194.591523,22.1806641 L202.551484,22.1679688 L202.538789,13.9287109 L195.06125,13.9287109 Z M196.000703,1.56347656 L189.18332,9.40917969 L184.041719,9.40917969 L190.846406,1.56347656 L196.000703,1.56347656 Z M196.597383,1.56347656 L201.738984,1.56347656 L208.556367,9.40917969 L203.40207,9.40917969 L196.597383,1.56347656 Z M221.347859,4.01367188 L220.052937,7.06054688 L218.047078,7.06054688 L218.047078,23.8691406 L214.797078,25.2402344 L214.797078,7.06054688 L211.204305,7.06054688 L211.204305,4.01367188 L214.797078,4.01367188 L214.797078,1.51269531 L218.047078,1.51269531 L218.047078,4.01367188 L221.347859,4.01367188 Z M211.051961,22.5488281 L211.800984,8.54589844 L214.568562,8.54589844 L214.035359,22.5488281 L211.051961,22.5488281 Z M218.237508,8.54589844 L220.916219,8.54589844 L221.868367,22.4091797 L218.986531,22.4091797 L218.237508,8.54589844 Z M231.999226,11.0722656 L231.999226,23.3740234 L228.317586,25.0244141 L228.317586,11.0722656 L226.095906,11.0722656 L226.095906,23.4121094 L222.414266,25.1259766 L222.414266,2.71875 L234.208211,1.37304688 L232.608601,5.04199219 L226.095906,5.84179688 L226.095906,8.13964844 L234.550984,8.13964844 L233.217976,11.0722656 L231.999226,11.0722656 Z" id="logo"></path>
                </g>
            </g>
        </g>
    </g>
</svg>