<?xml version="1.0" encoding="UTF-8"?>
<svg width="23px" height="18px" viewBox="0 0 23 18" version="1.1" xmlns="http://www.w3.org/2000/svg" xmlns:xlink="http://www.w3.org/1999/xlink">
    <!-- Generator: Sketch 52.1 (67048) - http://www.bohemiancoding.com/sketch -->
    <title>one</title>
    <desc>Created with Sketch.</desc>
    <defs>
        <linearGradient x1="50%" y1="0%" x2="50%" y2="100%" id="linearGradient-1">
            <stop stop-color="#FAF890" offset="3.6804552%"></stop>
            <stop stop-color="#F4A52A" offset="100%"></stop>
        </linearGradient>
    </defs>
    <g id="新能源" stroke="none" stroke-width="1" fill="none" fill-rule="evenodd">
        <g id="home-" transform="translate(-380.000000, -2008.000000)" fill="url(#linearGradient-1)">
            <g id="Group-9" transform="translate(360.000000, 1893.000000)">
                <g id="one-2" transform="translate(20.000000, 115.000000)">
                    <path d="M18.3187198,7.58672669 L14.7521254,8.99999115 L12.3620312,4.26090616 C13.1066966,3.89528163 13.6174089,3.13065561 13.6174089,2.24998894 C13.6174089,1.0090246 12.6004976,0 11.3477996,0 C10.0950841,0 9.07826087,1.0090246 9.07826087,2.24998894 C9.07826087,3.13065561 9.58888506,3.89529932 10.333621,4.26092385 L7.94347385,8.99997345 L4.37599797,7.586709 C4.48058046,7.32832961 4.53909517,7.04620055 4.53909517,6.74998451 C4.53909517,5.50900248 3.52220147,4.49997788 2.26953877,4.49997788 C1.01680556,4.49997788 -4.7783999e-13,5.50900248 -4.7783999e-13,6.75000221 C-4.7783999e-13,7.99362114 1.01680556,8.99999115 2.2695564,8.99999115 C2.39723449,8.99999115 2.52489494,8.99124873 2.64807732,8.96834853 L3.8573344,16.0892313 C3.97166641,17.2142435 4.99208616,18 6.01340505,18 L16.5687085,18 C17.7034779,18 18.6095304,17.2142435 18.8382473,16.0892313 L20.0475396,8.96831313 C20.170722,8.99121333 20.2984177,8.99995576 20.4260605,8.99995576 C21.6787585,8.99995576 22.6956522,7.99358574 22.6956522,6.74996682 C22.6956522,5.50898478 21.6787585,4.49997788 20.4260781,4.49997788 C19.1733273,4.49997788 18.1565217,5.50900248 18.1565217,6.75000221 C18.1564865,7.04620055 18.2150188,7.32831191 18.3187198,7.58672669 Z" id="one"></path>
                </g>
            </g>
        </g>
    </g>
</svg>