<?xml version="1.0" standalone="no"?><!DOCTYPE svg PUBLIC "-//W3C//DTD SVG 1.1//EN" "http://www.w3.org/Graphics/SVG/1.1/DTD/svg11.dtd"><svg class="icon" width="32px" height="31.51px" viewBox="0 0 1040 1024" version="1.1" xmlns="http://www.w3.org/2000/svg"><path d="M381.385387 519.085227l291.264-291.263147a25.658027 25.658027 0 0 1 18.20928-7.54688c14.226773 0 25.76384 11.529387 25.76384 25.75616a25.675093 25.675093 0 0 1-7.54688 18.213547L433.088853 540.235093l267.126614 267.173547a24.349013 24.349013 0 0 1 6.866773 17.009493c0 13.513387-10.9568 24.477013-24.47616 24.477014a24.405333 24.405333 0 0 1-17.01376-6.880427L388.632747 565.055147a24.080213 24.080213 0 0 1-6.557014-12.726614c0.533333 3.42272-0.19968 3.86304-0.690346 3.13344a25.660587 25.660587 0 0 1-7.522987-18.190506c0-7.09632 2.873173-13.5296 7.522987-18.189654v0.003414z m0 0" fill="#A2A2A2" /></svg>