<?xml version="1.0" encoding="UTF-8"?>
<svg width="23px" height="19px" viewBox="0 0 23 19" version="1.1" xmlns="http://www.w3.org/2000/svg" xmlns:xlink="http://www.w3.org/1999/xlink">
    <!-- Generator: Sketch 52.1 (67048) - http://www.bohemiancoding.com/sketch -->
    <title>th</title>
    <desc>Created with Sketch.</desc>
    <defs>
        <linearGradient x1="50%" y1="0%" x2="50%" y2="100%" id="linearGradient-1">
            <stop stop-color="#F4F9F5" offset="0%"></stop>
            <stop stop-color="#85858B" offset="100%"></stop>
        </linearGradient>
    </defs>
    <g id="新能源" stroke="none" stroke-width="1" fill="none" fill-rule="evenodd">
        <g id="home-" transform="translate(-380.000000, -2106.000000)" fill="url(#linearGradient-1)">
            <g id="Group-9" transform="translate(360.000000, 1893.000000)">
                <g id="Path-9" transform="translate(20.000000, 213.000000)">
                    <path d="M18.3187198,8.08672669 L14.7521254,9.49999115 L12.3620312,4.76090616 C13.1066966,4.39528163 13.6174089,3.63065561 13.6174089,2.74998894 C13.6174089,1.5090246 12.6004976,0.5 11.3477996,0.5 C10.0950841,0.5 9.07826087,1.5090246 9.07826087,2.74998894 C9.07826087,3.63065561 9.58888506,4.39529932 10.333621,4.76092385 L7.94347385,9.49997345 L4.37599797,8.086709 C4.48058046,7.82832961 4.53909517,7.54620055 4.53909517,7.24998451 C4.53909517,6.00900248 3.52220147,4.99997788 2.26953877,4.99997788 C1.01680556,4.99997788 -4.7783999e-13,6.00900248 -4.7783999e-13,7.25000221 C-4.7783999e-13,8.49362114 1.01680556,9.49999115 2.2695564,9.49999115 C2.39723449,9.49999115 2.52489494,9.49124873 2.64807732,9.46834853 L3.8573344,16.5892313 C3.97166641,17.7142435 4.99208616,18.5 6.01340505,18.5 L16.5687085,18.5 C17.7034779,18.5 18.6095304,17.7142435 18.8382473,16.5892313 L20.0475396,9.46831313 C20.170722,9.49121333 20.2984177,9.49995576 20.4260605,9.49995576 C21.6787585,9.49995576 22.6956522,8.49358574 22.6956522,7.24996682 C22.6956522,6.00898478 21.6787585,4.99997788 20.4260781,4.99997788 C19.1733273,4.99997788 18.1565217,6.00900248 18.1565217,7.25000221 C18.1564865,7.54620055 18.2150188,7.82831191 18.3187198,8.08672669 Z" id="th"></path>
                </g>
            </g>
        </g>
    </g>
</svg>